# xmcd CD database file
#
# Track frame offsets:
#	183
#	17215
#	37695
#	53295
#	80105
#	95533
#	107640
#	115888
#	136485
#	162260
#	184028
#
# Disc length: 2759 seconds
#
# Revision: 0
# Processed by: cddbd v1.4PL0 Copyright (c) Steve Scherf et al.
# Submitted via: CDex 1.50Beta7
#
DISCID=830ac50b
DTITLE=Kenny Drew - Everything I Love
DYEAR=1973
DGENRE=Jazz
TTITLE0=Sunset
TTITLE1=Portrait Of Mariann
TTITLE2=Blues For Nils
TTITLE3=Yesterdays
TTITLE4=Everything I Love
TTITLE5=Flamingo
TTITLE6=Fingering
TTITLE7=Winter Flower
TTITLE8=Fall
TTITLE9=I Can't Get Started
TTITLE10=Don't Explain
EXTD=YEAR: 1973
EXTT0=
EXTT1=
EXTT2=
EXTT3=
EXTT4=
EXTT5=
EXTT6=
EXTT7=
EXTT8=
EXTT9=
EXTT10=
PLAYORDER=
